<svg width="264" height="107" viewBox="0 0 264 107" fill="none" xmlns="http://www.w3.org/2000/svg">
<path d="M239.519 104.179H18.519H9.01901C-6.48103 104.179 17.019 96.1789 16.519 91.1788C16.019 86.1786 2.51901 84.1789 2.01901 80.1788C1.51901 76.1786 11.019 54.6786 14.519 56.6788C18.019 58.6789 19.019 72.6784 22.019 75.6786C25.019 78.6789 105.019 69.6789 116.519 68.1788C128.019 66.6786 94.019 52.6789 88.519 52.1788C83.019 51.6786 60.019 57.6789 53.519 54.6788C47.019 51.6786 43.019 40.6786 48.519 35.1788C54.019 29.6789 95.019 44.6786 104.019 41.1788C113.019 37.6789 135.519 8.6789 138.019 6.17879C140.519 3.67868 150.019 -1.82121 157.519 6.17879C165.019 14.1788 160.519 69.6786 160.519 69.6786C160.519 69.6786 205.019 95.1788 211.019 84.6786C217.019 74.1785 216.019 74.6788 216.019 69.6786C216.019 64.6785 194.519 38.6786 197.519 31.1786C200.519 23.6787 207.019 20.6786 216.019 21.1786C225.019 21.6786 259.519 75.6786 259.519 75.6786C259.519 75.6786 269.678 104.824 239.519 104.179Z" stroke="#FF830F" stroke-width="4"/>
</svg>
